HIERARCHY
ROOT Hips
{
	OFFSET -0.179506 -22.333345 2.821913
	CHANNELS 6 Xposition Yposition Zposition Zrotation Yrotation Xrotation 
	JOINT LeftUpLeg
	{
		OFFSET 6.951974 -9.140623 -0.681533
		CHANNELS 3 Zrotation Yrotation Xrotation
		JOINT LeftLeg
		{
			OFFSET 3.427654 -37.519855 -0.449580
			CHANNELS 3 Zrotation Yrotation Xrotation
			JOINT LeftFoot
			{
				OFFSET -1.359570 -39.796059 -4.369333
				CHANNELS 3 Zrotation Yrotation Xrotation
				JOINT LeftToe
				{
					OFFSET 2.635814 -5.579078 11.928840
					CHANNELS 3 Zrotation Yrotation Xrotation
					End Site
					{
						OFFSET 0.000000 0.000000 0.000000
					}
				}
			}
		}
	}
	JOINT RightUpLeg
	{
		OFFSET -6.767048 -9.052170 -0.431982
		CHANNELS 3 Zrotation Yrotation Xrotation
		JOINT RightLeg
		{
			OFFSET -3.829005 -38.256897 -0.885003
			CHANNELS 3 Zrotation Yrotation Xrotation
			JOINT RightFoot
			{
				OFFSET 1.577377 -39.841461 -4.231180
				CHANNELS 3 Zrotation Yrotation Xrotation
				JOINT RightToe
				{
					OFFSET -2.537174 -4.814398 12.334795
					CHANNELS 3 Zrotation Yrotation Xrotation
					End Site
					{
						OFFSET 0.000000 0.000000 0.000000
					}
				}
			}
		}
	}
	JOINT Spine
	{
		OFFSET -0.253288 10.896323 -2.669631
		CHANNELS 3 Zrotation Yrotation Xrotation
		JOINT Spine1
		{
			OFFSET 0.548704 13.518043 0.109247
			CHANNELS 3 Zrotation Yrotation Xrotation
			JOINT Spine2
			{
				OFFSET 0.145701 5.292222 2.542457
				CHANNELS 3 Zrotation Yrotation Xrotation
				JOINT Neck
				{
					OFFSET -0.277840 21.387037 -4.285703
					CHANNELS 3 Zrotation Yrotation Xrotation
					JOINT Head
					{
						OFFSET 0.515184 6.496960 5.134897
						CHANNELS 3 Zrotation Yrotation Xrotation
						End Site
						{
							OFFSET 0.000000 0.000000 0.000000
						}
					}
				}
				JOINT LeftShoulder
				{
					OFFSET 7.884473 12.174932 -3.408961
					CHANNELS 3 Zrotation Yrotation Xrotation
					JOINT LeftArm
					{
						OFFSET 9.097692 3.046888 -0.886815
						CHANNELS 3 Zrotation Yrotation Xrotation
						JOINT LeftForeArm
						{
							OFFSET 25.961220 -1.277207 -2.745643
							CHANNELS 3 Zrotation Yrotation Xrotation
							JOINT LeftHand
							{
								OFFSET 24.923361 0.898606 -0.117091
								CHANNELS 3 Zrotation Yrotation Xrotation
								End Site
								{
									OFFSET 0.000000 0.000000 0.000000
								}
							}
						}
					}
				}
				JOINT RightShoulder
				{
					OFFSET -8.175920 11.883285 -3.861528
					CHANNELS 3 Zrotation Yrotation Xrotation
					JOINT RightArm
					{
						OFFSET -9.601238 3.255117 -0.914307
						CHANNELS 3 Zrotation Yrotation Xrotation
						JOINT RightForeArm
						{
							OFFSET -25.374195 -1.332924 -2.140099
							CHANNELS 3 Zrotation Yrotation Xrotation
							JOINT RightHand
							{
								OFFSET -25.529810 0.777228 -0.555919
								CHANNELS 3 Zrotation Yrotation Xrotation
								End Site
								{
									OFFSET 0.000000 0.000000 0.000000
								}
							}
						}
					}
				}
			}
		}
	}
}
MOTION
Frames: 12
Frame Time: 0.033333
0.407259 1.803844 87.967644 51.838897 4.633502 80.216183 13.908854 3.687732 -6.989580 -9.332965 -0.629451 40.585794 2.442229 10.404124 -35.514166 nan nan nan -14.774017 -12.762172 -11.494064 1.892405 -14.184956 32.184087 2.482839 -7.889689 -15.503517 nan nan nan -5.642233 5.502966 3.277182 9.510344 -4.145659 15.759757 3.061748 1.729939 -6.813138 4.503225 -24.414166 19.610360 4.738551 -20.646760 14.679164 -15.624997 -10.921876 4.634904 -67.907078 -42.777283 34.420709 164.653610 -67.721863 -137.886131 -6.232772 -20.289019 -6.580485 16.520030 9.820429 -2.476447 28.645905 20.387343 -9.127080 -75.450256 43.848298 -58.983421 3.403651 7.739581 -3.759901 
0.405903 1.807438 87.980782 51.931484 4.622863 80.272487 13.899482 3.651800 -7.063660 -9.446678 -0.692570 40.591483 2.397792 10.457781 -35.499050 nan nan nan -14.791401 -12.776615 -11.486364 1.889691 -14.228039 32.114069 2.543713 -7.969193 -15.441420 nan nan nan -5.664827 5.484251 3.193044 9.485300 -4.158030 15.678555 3.046769 1.751799 -6.761282 4.455486 -24.538202 19.671726 4.710225 -20.515602 14.793189 -15.647753 -10.969599 4.683114 -67.774741 -42.735135 34.333581 164.943022 -67.714107 -137.925592 -5.625529 -20.178443 -7.026814 16.531948 9.759310 -2.513910 28.693153 20.330502 -9.082183 -75.471375 43.906258 -59.040203 3.084652 7.725474 -3.954457 
0.393612 1.810917 87.986542 51.960073 4.610346 80.284060 13.879525 3.624167 -7.068078 -9.506374 -0.751230 40.553899 2.386795 10.518485 -35.511399 nan nan nan -14.802393 -12.782809 -11.482465 1.917323 -14.230531 32.091224 2.562638 -8.049568 -15.411645 nan nan nan -5.680420 5.450084 3.180527 9.459577 -4.172124 15.638109 3.017745 1.792058 -6.707176 4.439912 -24.481373 19.696877 4.772463 -20.403109 14.853977 -15.624924 -10.934927 4.631291 -67.724175 -42.680223 34.301471 165.194092 -67.693787 -137.991086 -5.235614 -20.119670 -7.183510 16.503044 9.717733 -2.592660 28.765144 20.350529 -9.035995 -75.440623 43.912061 -59.035725 2.926197 7.795922 -4.137684 
0.392425 1.812192 87.994621 52.002263 4.607406 80.256886 13.856289 3.580422 -7.034699 -9.532314 -0.838541 40.524223 2.371248 10.505685 -35.487638 nan nan nan -14.821911 -12.795030 -11.401496 1.944101 -14.220574 32.041627 2.572735 -8.087642 -15.389967 nan nan nan -5.684985 5.435463 3.169691 9.443040 -4.169825 15.614749 2.987357 1.808771 -6.617806 4.421704 -24.525909 19.685573 4.837999 -20.394034 14.897821 -15.590540 -10.916359 4.605634 -67.696015 -42.673939 34.249129 165.342746 -67.647721 -138.079267 -5.182502 -20.035204 -7.060814 16.477102 9.673237 -2.614286 28.753907 20.402316 -9.132198 -75.377130 44.009760 -59.026338 2.893950 7.835975 -3.986743 
0.407873 1.811907 88.009003 52.019346 4.575476 80.199071 13.827667 3.573553 -6.940090 -9.533580 -0.822081 40.479446 2.401474 10.453505 -35.458496 nan nan nan -14.863991 -12.834874 -11.309864 1.950870 -14.145761 32.019893 2.568502 -8.066704 -15.364782 nan nan nan -5.705090 5.466427 3.172666 9.423411 -4.150570 15.623257 2.966207 1.801685 -6.569035 4.442900 -24.643998 19.710426 4.796761 -20.449671 14.858800 -15.555624 -10.868298 4.602737 -67.735656 -42.666564 34.206124 165.439245 -67.631361 -138.217016 -5.340938 -20.048735 -6.954053 16.473771 9.586593 -2.578045 28.683390 20.520596 -9.288086 -75.308457 44.120185 -58.683937 3.101904 7.654689 -3.384044 
0.419340 1.814363 88.024399 52.052539 4.558482 80.132182 13.810208 3.587618 -6.863485 -9.533753 -0.805663 40.453724 2.440516 10.464998 -35.400832 nan nan nan -14.887442 -12.852160 -11.200449 1.934884 -14.122474 31.974576 2.546526 -8.073887 -15.344501 nan nan nan -5.701862 5.503619 3.190506 9.417064 -4.136365 15.731398 2.957211 1.796409 -6.646052 4.403746 -24.771735 19.811644 4.768774 -20.582516 14.596787 -15.540460 -10.800136 4.640357 -67.784038 -42.666977 34.198700 165.331318 -67.617634 -138.235729 -5.640189 -20.153479 -6.995609 16.380176 9.533492 -2.551133 28.658724 20.498316 -9.314805 -75.306533 44.080027 -58.154873 3.496835 7.434461 -3.017028 
0.412537 1.810976 88.037163 52.090734 4.600991 80.116114 13.854997 3.605361 -6.886324 -9.492151 -0.781201 40.493868 2.433942 10.435412 -35.386511 nan nan nan -14.842346 -12.849512 -11.123003 1.917646 -14.167504 31.900055 2.543529 -8.066087 -15.319485 nan nan nan -5.656371 5.522458 3.144286 9.425889 -4.126394 15.872164 2.954256 1.808154 -6.734763 4.347258 -24.837186 19.919912 4.848728 -20.800642 14.314201 -15.541127 -10.736085 4.644841 -67.911027 -42.607350 34.271880 165.120304 -67.576520 -138.126382 -5.884157 -20.179713 -6.900570 16.271171 9.546000 -2.516325 28.710098 20.442281 -9.307126 -75.375155 43.944485 -58.123598 3.620296 7.496044 -3.056860 
0.410242 1.809853 88.041588 52.121943 4.628391 80.123166 13.855922 3.585858 -6.937601 -9.430561 -0.773927 40.553476 2.429302 10.395283 -35.377634 nan nan nan -14.816153 -12.832341 -11.097221 1.888185 -14.209570 31.871258 2.511720 -8.052187 -15.265466 nan nan nan -5.620733 5.536395 3.072591 9.430221 -4.116450 15.977176 2.938255 1.784830 -6.777411 4.293171 -24.936494 19.955594 4.922057 -21.012619 14.153455 -15.467007 -10.658471 4.659742 -68.044602 -42.513137 34.291293 165.163218 -67.480110 -138.227681 -5.905292 -20.020052 -6.679881 16.190854 9.531089 -2.432443 28.761817 20.512614 -9.325892 -75.337146 43.886362 -58.476196 3.143621 7.624038 -3.209388 
0.413990 1.812506 88.036209 52.172546 4.644358 80.115959 13.849482 3.560473 -6.985088 -9.377738 -0.749972 40.620660 2.454430 10.312471 -35.309436 nan nan nan -14.819756 -12.855566 -11.053465 1.877458 -14.211292 31.853646 2.502032 -8.045819 -15.214176 nan nan nan -5.594699 5.550455 3.021453 9.426892 -4.110049 16.054408 2.939186 1.743365 -6.787583 4.286936 -25.148180 19.818335 4.800788 -21.309541 14.159380 -15.353479 -10.647125 4.664624 -68.074380 -42.397677 34.233988 165.107714 -67.368738 -138.187792 -6.028391 -19.984136 -6.542369 16.081887 9.541632 -2.394718 28.793888 20.495244 -9.265052 -75.292187 43.807291 -58.649545 2.838757 7.631562 -3.357148 
0.416679 1.820938 88.020554 52.181985 4.640743 80.090627 13.842003 3.549212 -6.988058 -9.320702 -0.670854 40.660230 2.465482 10.241430 -35.304854 nan nan nan -14.859022 -12.878811 -11.020339 1.888126 -14.237350 31.856034 2.501004 -8.022781 -15.164459 nan nan nan -5.591753 5.595608 2.988173 9.432915 -4.062641 16.127749 2.960920 1.694631 -6.752425 4.284527 -25.390669 19.711998 4.649996 -21.638634 14.018940 -15.289316 -10.582441 4.664913 -68.068188 -42.328956 34.163245 164.968386 -67.267938 -138.164171 -6.404905 -20.100266 -6.359373 15.989340 9.548017 -2.413967 28.777155 20.463519 -9.231483 -75.267704 43.708997 -58.591131 2.958151 7.608649 -3.394907 
0.435955 1.829661 88.007858 52.130556 4.630843 80.016431 13.818934 3.583303 -6.896167 -9.246417 -0.612190 40.659578 2.474773 10.192885 -35.351079 nan nan nan -14.898778 -12.855696 -10.977801 1.924091 -14.196482 31.874710 2.496836 -8.011846 -15.117481 nan nan nan -5.559865 5.635305 3.011748 9.424836 -3.985991 16.202299 2.960860 1.650917 -6.718510 4.352311 -25.582763 19.562282 4.523539 -21.984064 13.883312 -15.258885 -10.449841 4.645631 -68.055803 -42.274574 34.126150 164.786439 -67.146105 -138.212579 -6.848232 -20.247653 -5.965335 15.921267 9.542174 -2.418638 28.759035 20.466050 -9.206610 -75.290248 43.643401 -58.642003 3.026069 7.615099 -3.546836 
0.443400 1.848965 88.003036 52.127459 4.649345 79.978991 13.806551 3.585269 -6.903522 -9.163619 -0.549398 40.736820 2.456187 10.172307 -35.343888 nan nan nan -14.892690 -12.856030 -10.959636 1.938605 -14.163547 31.898686 2.431638 -8.001931 -15.098687 nan nan nan -5.516194 5.636240 3.090076 9.410681 -3.933912 16.194084 2.935773 1.642733 -6.723503 4.374390 -25.798860 19.478997 4.599778 -22.417222 13.734161 -15.186891 -10.312450 4.674830 -68.051623 -42.261850 34.006503 164.613284 -67.033623 -138.017269 -7.343710 -20.397539 -5.394396 15.890735 9.520385 -2.387834 28.743573 20.398126 -9.221223 -75.290396 43.651345 -58.680849 3.070333 7.620835 -3.754785 
